<svg xmlns="http://www.w3.org/2000/svg" width="172.438" height="48.406" viewBox="0 0 172.438 48.406">
  <defs>
    <style>
      .cls-1 {
        fill: #56dded;
        fill-rule: evenodd;
      }
    </style>
  </defs>
  <path id="code_2048_copy_2" data-name="code 2048 copy 2" class="cls-1" d="M248.915,64.152h14.612V42.511h-4.669V60.336h-5.275V28.456h5.275v8.889h4.669V24.686H248.915V64.152Zm25.46-35.7h5.275v31.88h-5.275V28.456Zm-4.668,35.7h14.612V24.686H269.707V64.152Zm30.735-3.816h-5.275V28.456h5.275v31.88Zm0-35.65H290.5V64.152h14.612V15.75h-4.669v8.936Zm15.517,3.77h5.275V42.511h-5.275V28.456Zm-4.668,35.7H325.9V51.447h-4.669v8.889h-5.275V46.281H325.9V24.686H311.291V64.152Zm33.07-17.871h4.668V28.456H354.3V51.447h-9.943V64.152h14.611V60.336h-9.943V55.216h9.943V24.686H344.361V46.281Zm25.46-17.825H375.1v31.88h-5.275V28.456Zm-4.668,35.7h14.611V24.686H365.153V64.152Zm30.735-12.705h-5.275V24.686h-4.668v30.53h9.943v8.936h4.668V24.686h-4.668V51.447Zm15.517-22.991h5.275V42.511h-5.275V28.456Zm0,17.825h5.275V60.336h-5.275V46.281Zm-4.668,17.871h14.611V24.686H406.737V64.152Z" transform="translate(-248.906 -15.75)"/>
</svg>
